# xmcd
#
# Track frame offsets:
#	150
#	12167
#	29546
#	46659
#	64801
#	80066
#	97830
#	113613
#	127374
#	145217
#	162066
#	178326
#	190274
#	206923
#	225004
#	239040
#	254204
#	269669
#	288083
#	303538
#	318613
#	334855
#
# Disc length: 4666 seconds
#
# Revision: 1
# Processed by: cddbd v1.5.2PL0 Copyright (c) Steve Scherf et al.
# Submitted via: audiograbber 1.83.01
#
DISCID=4b123816
DTITLE=Various Artist - X-Mix Radioactive Rock and Country 185 (August 2013)
DYEAR=2013
DGENRE=rock
TTITLE0=Mind Your Manners (Radio Edit) XMIXR   (248 BPM)
TTITLE1=Follow Me (Radio Edit) XMIXR   (135 BPM)
TTITLE2=Dots And Dashes (Enough Already) (Radio Edit) XMIXR   (135 BPM)
TTITLE3=My Number (Radio Edit) XMIXR   (128 BPM)
TTITLE4=Pompeii (Radio Edit) XMIXR   (128 BPM)
TTITLE5=Fire Fire (Clean Version) XMIXR   (123 BPM)
TTITLE6=Elephant (Radio Edit) XMIXR   (123 BPM)
TTITLE7=Right Action (Radio Edit) XMIXR   (121 BPM)
TTITLE8=Southern Girl (Radio Edit) XMIXR   (110 BPM)
TTITLE9=Chocolate (Radio Edit) XMIXR   (101 BPM)
TTITLE10=Goodbye Town (Radio Edit) XMIXR   (95 BPM)
TTITLE11=Submarines (Radio Edit) XMIXR   (95 BPM)
TTITLE12=Hurricane (Radio Edit) XMIXR   (90 BPM)
TTITLE13=Love Hate Relationship (Radio Edit) XMIXR   (86 BPM)
TTITLE14=Parking Lot Crazy (New Radio Edit) XMIXR   (86 BPM)
TTITLE15=Hey Girl (Radio Edit) XMIXR   (82 BPM)
TTITLE16=Asking Too Much (Radio Edit) XMIXR   (80 BPM)
TTITLE17=Everything Has Changed (Pop Mix) XMIXR   (80 BPM)
TTITLE18=Born To Rise (Radio Edit) XMIXR   (77 BPM)
TTITLE19=F__k Around (All Night) (Super Clean) XMIXR   (76 BPM)
TTITLE20=Redneck Crazy (Radio Edit) XMIXR   (73 BPM)
TTITLE21=Round Here (Radio Edit) XMIXR   (71 BPM)
EXTD=
EXTT0=
EXTT1=
EXTT2=
EXTT3=
EXTT4=
EXTT5=
EXTT6=
EXTT7=
EXTT8=
EXTT9=
EXTT10=
EXTT11=
EXTT12=
EXTT13=
EXTT14=
EXTT15=
EXTT16=
EXTT17=
EXTT18=
EXTT19=
EXTT20=
EXTT21=
PLAYORDER=
